<?xml version="1.0" standalone="no"?>
<!DOCTYPE svg PUBLIC "-//W3C//DTD SVG 20010904//EN"
 "http://www.w3.org/TR/2001/REC-SVG-20010904/DTD/svg10.dtd">
<svg version="1.0" xmlns="http://www.w3.org/2000/svg"
 width="1200.000000pt" height="1200.000000pt" viewBox="0 0 1200.000000 1200.000000"
 preserveAspectRatio="xMidYMid meet">

<g transform="translate(0.000000,1200.000000) scale(0.100000,-0.100000)"
fill="#ffffff" stroke="none">
<path d="M2533 7800 c-23 -9 -53 -57 -53 -84 0 -29 23 -66 41 -66 10 0 33 9
51 20 37 22 82 25 114 7 12 -7 40 -36 63 -64 60 -76 79 -78 149 -10 70 66 104
76 164 49 36 -16 48 -29 77 -87 55 -108 105 -112 173 -15 51 75 72 90 123 90
42 0 49 -4 146 -78 24 -18 52 -32 63 -30 11 2 40 31 65 64 90 121 154 126 256
21 20 -20 43 -37 51 -37 9 0 36 18 61 39 83 74 136 64 193 -37 20 -35 43 -68
52 -73 27 -15 64 9 108 73 68 96 120 108 209 48 56 -38 89 -38 125 -1 41 43
47 107 13 147 l-25 29 -1099 2 c-625 1 -1107 -2 -1120 -7z"/>
<path d="M2582 7619 c-22 -14 -43 -20 -67 -17 l-35 4 0 -214 c0 -232 5 -257
55 -280 20 -9 290 -12 1106 -12 1162 0 1121 -2 1149 49 10 20 15 431 5 431 -3
0 -17 -7 -31 -16 -37 -25 -102 -14 -157 26 -61 44 -85 37 -136 -38 -46 -68
-59 -80 -101 -92 -56 -16 -103 17 -150 107 -34 64 -54 66 -115 8 -70 -66 -98
-64 -177 11 -75 71 -102 73 -155 7 -21 -26 -52 -62 -70 -80 -49 -52 -96 -43
-188 37 -75 65 -108 56 -182 -53 -18 -26 -44 -52 -59 -57 -74 -29 -130 2 -178
98 -52 103 -78 107 -167 25 -56 -52 -66 -58 -106 -58 -47 0 -46 -1 -136 103
-32 37 -59 40 -105 11z"/>
<path d="M2390 7480 c0 -133 1 -140 20 -140 19 0 20 7 20 140 0 133 -1 140
-20 140 -19 0 -20 -7 -20 -140z"/>
<path d="M4850 7480 l0 -140 25 0 25 0 0 140 0 140 -25 0 -25 0 0 -140z"/>
<path d="M4947 7524 c-4 -4 -7 -24 -7 -45 0 -31 5 -40 34 -57 23 -13 35 -30
40 -52 8 -42 8 -308 0 -349 -18 -86 -69 -91 -1026 -91 l-788 0 0 -1080 0
-1080 358 2 357 3 3 398 2 397 169 0 170 0 212 -372 c117 -205 221 -385 231
-400 l19 -28 379 0 c208 0 381 3 383 8 3 4 -107 192 -244 417 -137 226 -249
418 -249 428 0 9 6 17 13 17 24 0 162 91 216 143 73 71 143 180 172 268 21 64
24 92 24 209 -1 155 -16 225 -72 339 -44 92 -141 192 -231 240 l-64 33 20 22
c40 43 42 59 42 303 0 218 -2 241 -20 270 -10 17 -27 36 -37 41 -26 14 -97 24
-106 16z m-276 -1193 c23 -24 29 -38 29 -73 0 -54 -30 -105 -67 -115 -15 -5
-181 -8 -368 -8 l-340 0 -3 113 -3 112 361 0 362 0 29 -29z"/>
<path d="M5981 6930 c-106 -28 -194 -81 -282 -169 -132 -133 -187 -282 -176
-475 15 -276 189 -491 463 -572 95 -28 248 -24 349 10 241 82 403 277 434 523
16 131 -7 252 -72 378 -42 80 -173 211 -254 253 -135 71 -313 91 -462 52z
m254 -399 c161 -73 181 -294 37 -396 -55 -38 -158 -47 -216 -20 -144 68 -180
249 -73 362 67 71 169 92 252 54z"/>
<path d="M7352 6930 c-110 -29 -186 -75 -278 -165 -126 -124 -184 -262 -184
-437 0 -117 14 -176 65 -283 90 -187 267 -315 476 -345 253 -36 519 101 637
328 53 102 73 182 73 295 -1 179 -58 317 -185 442 -48 47 -106 93 -143 113
-133 70 -313 91 -461 52z m246 -396 c166 -69 191 -295 44 -397 -44 -30 -53
-32 -128 -32 -73 0 -85 3 -123 29 -115 80 -133 242 -38 343 65 69 163 92 245
57z"/>
<path d="M8282 6323 l3 -608 200 0 200 0 3 318 c1 174 6 317 10 316 4 0 66
-78 137 -174 72 -96 135 -174 140 -174 6 0 53 57 105 126 52 70 113 149 135
177 l40 51 5 -320 5 -320 200 0 200 0 3 608 2 607 -208 0 -208 0 -134 -190
c-74 -104 -139 -190 -145 -190 -6 0 -71 85 -145 190 l-135 190 -208 0 -207 0
2 -607z"/>
<path d="M5520 5155 l0 -385 335 0 335 0 0 100 0 100 -210 0 -210 0 0 45 0 45
210 0 210 0 0 100 0 100 -210 0 -210 0 0 40 0 40 210 0 210 0 0 100 0 100
-335 0 -335 0 0 -385z"/>
<path d="M6250 5533 c0 -5 47 -177 103 -383 l104 -375 206 -3 c189 -2 206 -1
211 15 14 49 206 745 206 749 0 3 -62 3 -137 2 l-137 -3 -68 -279 c-37 -153
-70 -281 -72 -284 -7 -7 -8 -6 -71 258 -31 129 -60 252 -66 273 l-10 37 -134
0 c-74 0 -135 -3 -135 -7z"/>
<path d="M7117 5171 c-59 -202 -109 -376 -113 -385 -5 -14 8 -16 129 -16 l135
0 7 40 7 41 141 -3 141 -3 9 -37 9 -38 129 0 c96 0 129 3 129 12 0 7 -48 181
-107 385 l-108 373 -201 0 -201 0 -106 -369z m350 43 c46 -173 48 -164 -40
-164 -41 0 -76 2 -79 5 -10 10 64 286 76 282 6 -2 25 -57 43 -123z"/>
<path d="M7910 5155 l0 -385 125 0 125 0 0 200 c0 110 3 200 8 200 4 -1 43
-50 87 -110 44 -60 83 -108 87 -107 4 1 44 52 90 112 l83 110 3 -203 2 -203
128 3 127 3 3 383 2 383 -132 -3 -132 -3 -81 -114 c-45 -63 -87 -117 -92 -118
-6 -2 -48 50 -94 116 l-83 121 -128 0 -128 0 0 -385z"/>
<path d="M8890 5156 l0 -386 125 0 125 0 0 144 0 144 173 4 c195 4 222 12 289
86 48 53 62 99 56 184 -7 87 -40 140 -113 177 -49 26 -50 26 -352 29 l-303 3
0 -385z m514 162 c8 -13 8 -23 0 -35 -10 -15 -30 -18 -138 -21 l-126 -3 0 41
0 41 126 -3 c108 -3 128 -6 138 -20z"/>
</g>
</svg>
